<svg xmlns="http://www.w3.org/2000/svg" width="292.22092pt" height="150.00002pt" viewBox="0 0 292.22092 150.00002"><path fill="#e1002a" d="M25.525 99.628c-4.81-2.268-8.783-4.085-8.783-7.773 0-2.813 2.259-4.871 6.712-4.871 1.64 0 2.975.2 4.36.447.727.133 1.501.242 2.135.242 3.897 0 6.085-2.327 7.555-6.736l.603-1.785c-.63-.256-6.983-3.057-15.274-3.057-13.18 0-20.14 8.462-20.14 17.239 0 4.427 1.383 7.62 3.554 10.153 2.792 3.257 6.783 5.38 10.51 7.195 5.428 2.669 10.329 4.642 10.329 8.592 0 3.505-3.617 5.496-8.46 5.496-6.632 0-12.435-3.785-13.174-4.241L0 130.734c.972.548 7.985 5.005 19.543 5.005 12.303-.006 21.619-7.063 21.619-17.926 0-10.8-8.627-14.798-15.637-18.185M73.669 104.667 95.992 77.3H80.08l-17.802 23.607h-.268V77.301H48.9v57.965h.78c5.667 0 12.421-2.615 12.421-12.088v-13.307h.262l18.147 24.685h16.691zM96.733 15.188c-4.618.872-11.466 5.063-11.443 12.468.03 6.724 5.52 10.815 5.538 19.619.032 6.636-3.626 11.095-7.576 13.578 1.59-.138 3.346-.23 5.272-.238 4.03-.015 6.471.37 6.61.403l20.718-25.41c-5.759-8.615-12.468-15.295-19.119-20.42M114.127 83.796c2.613-4.044 2.934-10.513 3.152-17.104.247-6.139 1.532-10.763 9.764-10.792 1.808-.012 3.537.244 6.683.238 12.035-.064 19.905-4.2 24.791-6.93-10-6.362-24.573-12.872-42.664-13.6-1.187 3.32-10.358 28.819-11.039 30.877.091.124 1.703 1.918 3.711 5.435 2.958 4.818 4.548 8.91 5.602 11.876" style="stroke-width:2.94539"/><path fill="#ee7601" d="M70.392 62.981c-1.051.012-1.573-.689-1.72-1.894-.13-1.207-5.302-48.578-6.076-55.75-.115-1.051-.374-2.963-.374-3.652C62.222.58 62.934 0 63.789 0c2.45-.009 15.822 3.128 30.004 13.066-4.076 1.163-11.478 5.408-11.44 14.223.03 7.785 5.6 12.076 5.63 19.893.055 12.721-14.575 15.79-17.59 15.8M115.316 87.186c.221.595.427 1.08.645 1.437.312.55.745.813 1.267.804.333-.009.73-.115 1.18-.324 1.094-.492 44.34-20.623 50.859-23.63.937-.457 2.74-1.255 3.328-1.6.61-.36.893-.857.893-1.381 0-.292-.089-.587-.25-.852-.82-1.32-4.996-5.755-11.997-10.612-5.552 3.066-14.224 7.794-27.116 7.838-3.172.009-3.882-.206-6.052-.2-6.289.026-7.864 2.724-8.094 8.238-.03 1.048-.044 2.447-.115 3.988-.2 4.936-.787 11.746-4.548 16.294M165.284 102.367c-6.928 0-10.47 4.568-11.051 5.237-1.74-3.287-4.954-5.237-9.178-5.237-6.085 0-9.56 3.54-10.135 4.109-.245-.954-1.493-3.532-5.437-3.532-1.128 0-2.795.35-2.937.401.165.736.913 4.341.913 9.31v21.908h8.018v-22.332c.159-.135 3.16-3.175 6.756-3.175 3.676 0 5.402 2.692 5.402 6.368v19.14h8.053V112.23c.156-.156 3.104-3.175 6.754-3.175 3.67 0 5.34 2.692 5.34 6.368v19.14h8.102v-20.389c0-7.157-4.073-11.808-10.6-11.808M259.632 93.329c0 2.665-2.233 4.836-4.987 4.836-2.757 0-4.971-2.17-4.971-4.836 0-2.684 2.214-4.857 4.971-4.857 2.754 0 4.987 2.173 4.987 4.857M258.657 134.564h-8.023V103.06h8.023zM199.526 126.649c-.483.28-2.648 2.232-5.879 2.232-2.771 0-4.877-1.682-4.877-4.462 0-2.35 2.262-4.392 6.612-4.392h4.144zm.695 4.745c.563 1.47 1.915 3.169 4.713 3.169 1.496 0 3.414-.383 3.723-.51-.242-.91-.978-3.384-.978-8.91v-11.056c0-8.206-5.278-11.72-13.434-11.72-6.872 0-11.773 3.29-12.335 3.67 0 0 .327.562.545.984.686 1.166 1.302 2.883 3.316 2.883 2 0 3.705-1.537 7.526-1.537 4.194 0 6.23 2.038 6.23 5.148v1.099h-2.637c-10.757 0-16.415 4.162-16.415 10.839 0 5.902 4.495 9.823 10.701 9.823 5.92 0 8.533-3.443 9.045-3.882M243.76 104.44c-.563-.208-6.896-2.088-13.24-2.088-9.381 0-17.26 5.78-17.26 16.433 0 10.33 7.44 16.453 17.26 16.453 1.997 0 4.945-.268 5.234-.318v2.005c0 3.544-3.149 7.12-7.953 7.12-3.67 0-5.184-1.302-7.04-1.302-2.058 0-2.656 1.755-3.334 2.907-.226.388-.8 1.425-.8 1.425.538.307 5.068 2.925 11.024 2.925 9.466 0 16.108-6.35 16.108-15.204zm-8.006 23.785c-.23.059-2.734.436-4.734.436-5.667 0-9.781-3.72-9.781-9.876 0-5.732 3.65-9.858 9.781-9.858 1.726 0 4.498.365 4.734.415zM281.98 128.765c-5.452 0-9.346-4.312-9.346-9.935 0-6.265 4.427-9.994 9.337-9.994 2.648 0 3.773.813 5.525.813 1.874 0 2.87-.922 3.8-2.716.513-1.007.81-1.575.81-1.575-.398-.257-4.45-3.005-11.349-3.005-10.108 0-16.152 7.231-16.152 16.477 0 10.09 6.913 16.42 16.152 16.42 6.695 0 10.754-2.73 11.464-3.243l-2.78-5.484c-.607.392-3.476 2.242-7.461 2.242" style="stroke-width:2.94539"/></svg>